<?xml version="1.0" standalone="no"?>
<!DOCTYPE svg PUBLIC "-//W3C//DTD SVG 20010904//EN"
 "http://www.w3.org/TR/2001/REC-SVG-20010904/DTD/svg10.dtd">
<svg version="1.0" xmlns="http://www.w3.org/2000/svg"
 width="512.000000pt" height="512.000000pt" viewBox="0 0 512.000000 512.000000"
 preserveAspectRatio="xMidYMid meet">
<metadata>
Created by potrace 1.14, written by Peter Selinger 2001-2017
</metadata>
<g transform="translate(0.000000,512.000000) scale(0.100000,-0.100000)"
fill="#000000" stroke="none">
<path d="M1857 4467 c-54 -17 -101 -59 -126 -111 l-21 -46 0 -1035 c0 -736 -3
-1035 -11 -1035 -6 0 -41 13 -77 29 -96 42 -168 61 -263 69 -170 14 -309 -11
-454 -82 -289 -143 -476 -445 -475 -769 1 -384 262 -716 645 -818 104 -28 297
-31 399 -6 329 81 577 343 642 677 11 62 14 230 14 968 l0 892 855 0 855 0 0
-232 c0 -205 3 -238 19 -274 50 -111 187 -162 292 -108 37 19 85 76 100 121
11 31 14 185 14 808 0 424 -4 787 -8 808 -10 46 -57 101 -111 130 l-41 22
-1105 2 c-827 1 -1115 -1 -1143 -10z m1983 -627 l0 -210 -855 0 -855 0 0 210
0 210 855 0 855 0 0 -210z m-2462 -1930 c113 -26 229 -118 281 -220 96 -194
46 -410 -128 -540 -118 -89 -303 -106 -435 -41 -126 62 -214 183 -238 325 -34
207 103 414 313 470 64 17 147 19 207 6z"/>
<path d="M3350 2124 c-159 -29 -290 -101 -397 -219 -171 -185 -222 -451 -133
-688 46 -122 101 -186 508 -584 264 -258 403 -387 429 -398 50 -21 133 -21
174 1 18 9 208 188 423 398 407 398 459 459 506 584 45 119 55 271 26 396 -51
218 -231 407 -461 483 -69 23 -97 27 -205 27 -142 0 -202 -13 -313 -71 l-67
-36 -62 33 c-96 52 -170 70 -293 75 -60 2 -121 2 -135 -1z m187 -429 c34 -10
71 -34 119 -76 81 -72 121 -90 191 -90 63 0 101 18 168 82 93 88 204 115 307
76 57 -22 119 -87 143 -150 23 -60 16 -151 -15 -201 -20 -34 -596 -606 -609
-606 -4 0 -138 129 -299 286 -180 176 -301 302 -314 327 -26 51 -34 142 -18
191 23 71 101 141 179 162 62 17 88 17 148 -1z"/>
</g>
</svg>
